# xmcd
#
# Track frame offsets: 
#        150
#        17310
#        34450
#        50012
#        70370
#        88587
#        106015
#        125947
#        145637
#        161817
#        185900
#        209462
#        230255
#        249042
#        272980
#
# Disc length: 3984 seconds
#
# Revision: 1
# Processed by: cddbd v1.5.2PL0 Copyright (c) Steve Scherf et al.
# Submitted via: ExactAudioCopyFreeDBPlugin 1.0
#
DISCID=d80f8e0f
DTITLE=氷室京介 - 20th Anniversary ALL SINGLES COMPLETE BEST JUST MOVIN' O
DTITLE=N ～ALL THE -S-HIT～ [Disc 1]
DYEAR=2008
DGENRE=Rock
TTITLE0=ANGEL
TTITLE1=DEAR ALGERNON
TTITLE2=SUMMER GAME
TTITLE3=MISTY ～微妙に～
TTITLE4=JEALOUSYを眠らせて
TTITLE5=CRIME OF LOVE
TTITLE6=Urban Dance
TTITLE7=Good Luck My Love
TTITLE8=KISS ME
TTITLE9=Virgin Beat
TTITLE10=魂を抱いてくれ
TTITLE11=Stay
TTITLE12=SQUALL
TTITLE13=WALTZ
TTITLE14=CLOUDY HEART
EXTD=
EXTT0=
EXTT1=
EXTT2=
EXTT3=
EXTT4=
EXTT5=
EXTT6=
EXTT7=
EXTT8=
EXTT9=
EXTT10=
EXTT11=
EXTT12=
EXTT13=
EXTT14=
PLAYORDER=
